<?xml version="1.0" encoding="utf-8"?>
<!-- Generator: Adobe Illustrator 26.5.0, SVG Export Plug-In . SVG Version: 6.00 Build 0)  -->
<svg version="1.1" id="Layer_1" xmlns="http://www.w3.org/2000/svg" xmlns:xlink="http://www.w3.org/1999/xlink" x="0px" y="0px"
	 viewBox="0 0 97.1 131.7" style="enable-background:new 0 0 97.1 131.7;" xml:space="preserve">
<style type="text/css">
	.st0{fill:#FFA000;}
	.st1{fill:#F57C00;}
	.st2{fill:#FFCA28;}
	.st3{opacity:0.2;}
	.st4{fill:#FFFFFF;}
	.st5{opacity:0.2;enable-background:new    ;}
	.st6{fill:#A52714;}
</style>
<g>
	<g>
		<path class="st0" d="M51.1,20c-0.5-1-1.5-1.6-2.6-1.6c-1.1,0-2.1,0.6-2.6,1.6l-6.6,12.7L22.5,1.5c-0.6-1.1-1.9-1.7-3.1-1.5
			c-1.3,0.2-2.2,1.2-2.4,2.5L0.8,105.7h95.3L51.1,20z"/>
	</g>
</g>
<g>
	<g>
		<polygon class="st1" points="39.2,32.6 0.8,105.7 56.6,65.5 		"/>
	</g>
</g>
<g>
	<g>
		<path class="st2" d="M83.8,29.3c-0.2-1.1-1-2-2-2.3s-2.2-0.1-3,0.7L0.8,105.7L44,129.9c2.7,1.5,6,1.5,8.7,0l43.5-24.2L83.8,29.3z"
			/>
	</g>
</g>
<g>
	<g class="st3">
		<g>
			<path class="st4" d="M48.5,19.1c-1.1,0-2.1,0.6-2.6,1.6l-6.6,12.7L22.5,2.3c-0.6-1.1-1.9-1.7-3.1-1.5C18.1,1,17.2,2,17,3.2
				L1,105.6l62.1-62.2L51.1,20.7C50.6,19.8,49.6,19.1,48.5,19.1z"/>
			<path class="st4" d="M83.8,29.3L83.8,29.3c-0.2-1.1-1-2-2-2.3s-2.2-0.1-3,0.7L63.3,43.2L51.1,20c-0.5-1-1.5-1.6-2.6-1.6
				c-1.1,0-2.1,0.6-2.6,1.6l-6.6,12.7L22.5,1.5c-0.6-1.1-1.9-1.7-3.1-1.5c-1.3,0.2-2.2,1.2-2.4,2.5L0.8,105.7H0.8l0.1,0.1l0.4,0.2
				l77.5-77.6c0.8-0.8,2-1.1,3-0.7c1.1,0.3,1.8,1.2,2,2.3L96,105.8l0.1-0.1L83.8,29.3z M1,105.6L17,3.2C17.2,2,18.1,1,19.4,0.7
				c1.3-0.2,2.5,0.4,3.1,1.5l16.7,31.1l6.6-12.7c0.5-1,1.5-1.6,2.6-1.6c1.1,0,2.1,0.6,2.6,1.6l11.9,22.7L1,105.6z"/>
		</g>
	</g>
</g>
<g class="st5">
	<g>
		<path class="st6" d="M96.1,105l-43.4,24.1l0,0c-2.7,1.5-6,1.5-8.7,0l-43-24.1l-0.1,0.7L44,129.9c2.7,1.5,6,1.5,8.7,0l43.5-24.2
			L96.1,105z"/>
	</g>
</g>
<g>
</g>
</svg>
