<svg xmlns="http://www.w3.org/2000/svg" xmlns:xlink="http://www.w3.org/1999/xlink" version="1.1" width="256" height="256" viewBox="0 0 256 256" xml:space="preserve">
<desc>Created with Fabric.js 1.7.22</desc>
<defs>
</defs>
<g transform="translate(128 128) scale(0.72 0.72)" style="fill:white;">
	<g 
    style="
      stroke: white; 
      background: red;
      stroke-width: 0; 
      stroke-dasharray: none; 
      stroke-linecap: butt; 
      stroke-linejoin: miter; 
      stroke-miterlimit: 10; 
      fill: white; 
      fill-rule: nonzero; 
      opacity: 1;
    " 
    transform="translate(-175.05 -175.05000000000004) scale(3.89 3.89)" >
	<path d="M 15.536 69.047 c -0.079 0 -0.157 -0.009 -0.235 -0.028 C 8.321 67.332 0 64.276 0 59.295 V 18.739 C 0 10.434 23.185 5.953 45 5.953 c 21.814 0 45 4.481 45 12.786 c 0 4.799 -7.728 7.813 -14.536 9.535 v 39.773 c 0 0.553 -0.447 1 -1 1 s -1 -0.447 -1 -1 V 27.491 c 0 -0.462 0.316 -0.863 0.765 -0.972 C 82.724 24.465 88 21.484 88 18.739 c 0 -5.102 -17.659 -10.786 -43 -10.786 c -25.34 0 -43 5.684 -43 10.786 c 0 2.746 5.276 5.727 13.771 7.78 c 0.449 0.109 0.765 0.51 0.765 0.972 v 40.556 c 0 0.307 -0.141 0.596 -0.381 0.786 C 15.976 68.973 15.758 69.047 15.536 69.047 z M 2 22.73 v 36.565 c 0 2.611 4.768 5.434 12.536 7.469 v -38.49 C 9.855 27.089 4.74 25.295 2 22.73 z" 
    style="
      stroke: white; 
      stroke-width: 1; 
      stroke-dasharray: none; stroke-linecap: butt; stroke-linejoin: miter; stroke-miterlimit: 10; fill: rgb(255,255,255); fill-rule: nonzero; opacity: 1;" transform=" matrix(1 0 0 1 0 0) " stroke-linecap="round" />
	<path d="M 15.535 51.542 c -0.451 0 -0.86 -0.308 -0.971 -0.766 c -0.129 -0.536 0.201 -1.077 0.737 -1.206 c 4.878 -1.179 10.753 -2.065 16.991 -2.565 c 0.545 -0.041 1.033 0.366 1.077 0.917 c 0.044 0.551 -0.366 1.033 -0.917 1.077 c -6.135 0.491 -11.903 1.361 -16.681 2.515 C 15.691 51.533 15.613 51.542 15.535 51.542 z" 
    style="stroke: white; stroke-width: 1; stroke-dasharray: none; stroke-linecap: butt; stroke-linejoin: miter; stroke-miterlimit: 10; fill: rgb(255,255,255); fill-rule: nonzero; opacity: 1;" transform=" matrix(1 0 0 1 0 0) " stroke-linecap="round" />
	<path d="M 74.466 51.542 c -0.078 0 -0.157 -0.009 -0.235 -0.028 c -4.779 -1.153 -10.547 -2.023 -16.682 -2.515 c -0.551 -0.044 -0.961 -0.526 -0.917 -1.077 c 0.044 -0.55 0.511 -0.955 1.077 -0.917 c 6.236 0.5 12.112 1.387 16.99 2.565 c 0.537 0.129 0.867 0.67 0.737 1.206 C 75.326 51.234 74.917 51.542 74.466 51.542 z" 
    style="stroke: white; stroke-width: 1; stroke-dasharray: none; stroke-linecap: butt; stroke-linejoin: miter; stroke-miterlimit: 10; fill: rgb(255,255,255); fill-rule: nonzero; opacity: 1;" transform=" matrix(1 0 0 1 0 0) " stroke-linecap="round" />
	<path d="M 74.463 69.047 c -0.451 0 -0.86 -0.308 -0.971 -0.766 c -0.13 -0.536 0.2 -1.077 0.737 -1.206 C 82.724 65.022 88 62.042 88 59.295 V 18.739 c 0 -0.552 0.447 -1 1 -1 s 1 0.448 1 1 v 40.556 c 0 4.981 -8.321 8.037 -15.302 9.724 C 74.62 69.038 74.541 69.047 74.463 69.047 z" style="stroke: white; stroke-width: 1; stroke-dasharray: none; stroke-linecap: butt; stroke-linejoin: miter; stroke-miterlimit: 10; fill: rgb(255,255,255); fill-rule: nonzero; opacity: 1;" transform=" matrix(1 0 0 1 0 0) " stroke-linecap="round" />
	<path d="M 12.746 20.095 c -0.427 0 -0.822 -0.275 -0.955 -0.705 c -0.164 -0.528 0.132 -1.088 0.659 -1.251 c 4.476 -1.386 10.148 -2.492 16.405 -3.198 c 0.544 -0.061 1.044 0.332 1.106 0.881 c 0.062 0.549 -0.333 1.044 -0.881 1.106 c -6.134 0.692 -11.68 1.772 -16.038 3.121 C 12.943 20.081 12.844 20.095 12.746 20.095 z" style="stroke: white; stroke-width: 1; stroke-dasharray: none; stroke-linecap: butt; stroke-linejoin: miter; stroke-miterlimit: 10; fill: rgb(255,255,255); fill-rule: nonzero; opacity: 1;" transform=" matrix(1 0 0 1 0 0) " stroke-linecap="round" />
	<path d="M 77.772 20.095 c -0.098 0 -0.197 -0.015 -0.296 -0.045 c -1.478 -0.458 -3.105 -0.889 -4.839 -1.281 c -0.539 -0.122 -0.877 -0.657 -0.755 -1.196 c 0.122 -0.539 0.658 -0.88 1.196 -0.754 c 1.784 0.404 3.462 0.848 4.989 1.321 c 0.527 0.163 0.822 0.723 0.659 1.251 C 78.595 19.82 78.199 20.095 77.772 20.095 z" style="stroke: white; stroke-width: 1; stroke-dasharray: none; stroke-linecap: butt; stroke-linejoin: miter; stroke-miterlimit: 10; fill: rgb(255,255,255); fill-rule: nonzero; opacity: 1;" transform=" matrix(1 0 0 1 0 0) " stroke-linecap="round" />
	<path d="M 68.448 26.788 c -0.058 0 -0.114 -0.005 -0.172 -0.015 c -2.164 -0.377 -4.464 -0.705 -6.837 -0.973 c -0.506 -0.057 -0.888 -0.485 -0.888 -0.994 v -8.872 c 0 -0.285 0.121 -0.556 0.334 -0.746 c 0.212 -0.189 0.5 -0.281 0.778 -0.248 c 2.418 0.273 4.758 0.606 6.956 0.989 c 0.479 0.083 0.828 0.5 0.828 0.985 v 8.872 c 0 0.295 -0.131 0.575 -0.356 0.766 C 68.91 26.706 68.682 26.788 68.448 26.788 z M 62.552 23.917 c 1.679 0.201 3.318 0.432 4.896 0.688 V 17.76 c -1.571 -0.26 -3.211 -0.495 -4.896 -0.7 V 23.917 z" style="stroke: white; stroke-width: 1; stroke-dasharray: none; stroke-linecap: butt; stroke-linejoin: miter; stroke-miterlimit: 10; fill: rgb(255,255,255); fill-rule: nonzero; opacity: 1;" transform=" matrix(1 0 0 1 0 0) " stroke-linecap="round" />
	<path d="M 64.355 84.047 H 25.645 c -0.552 0 -1 -0.447 -1 -1 V 70.211 c 0 -3.07 2.349 -5.693 5.586 -6.238 l 5.225 -0.881 c 1.54 -0.259 2.658 -1.467 2.658 -2.872 l 0.033 -1.378 c 0.013 -0.544 0.458 -0.976 0.999 -0.976 c 0.008 0 0.017 0 0.024 0 c 0.552 0.014 0.989 0.472 0.976 1.024 l -0.033 1.354 c 0 2.361 -1.819 4.399 -4.326 4.82 l -5.225 0.881 c -2.271 0.382 -3.918 2.176 -3.918 4.266 v 11.836 h 36.711 V 70.211 c 0 -2.09 -1.647 -3.884 -3.918 -4.266 l -5.226 -0.881 c -2.506 -0.421 -4.325 -2.459 -4.325 -4.845 l -0.031 -1.33 c -0.013 -0.553 0.425 -1.011 0.977 -1.023 c 0.55 -0.024 1.011 0.425 1.023 0.977 l 0.031 1.354 c 0 1.429 1.117 2.637 2.657 2.896 l 5.226 0.881 c 3.236 0.545 5.586 3.168 5.586 6.238 v 12.836 C 65.355 83.6 64.908 84.047 64.355 84.047 z" style="stroke: white; stroke-width: 1; stroke-dasharray: none; stroke-linecap: butt; stroke-linejoin: miter; stroke-miterlimit: 10; fill: rgb(255,255,255); fill-rule: nonzero; opacity: 1;" transform=" matrix(1 0 0 1 0 0) " stroke-linecap="round" />
	<path d="M 45.007 68.987 c -3.09 0 -6.183 -1.481 -9.192 -4.447 c -0.394 -0.387 -0.398 -1.021 -0.011 -1.414 c 0.388 -0.393 1.021 -0.398 1.414 -0.01 c 5.245 5.166 10.335 5.167 15.562 0.001 c 0.394 -0.39 1.026 -0.384 1.414 0.008 c 0.389 0.393 0.385 1.026 -0.008 1.414 C 51.187 67.505 48.098 68.987 45.007 68.987 z" style="stroke: white; stroke-width: 1; stroke-dasharray: none; stroke-linecap: butt; stroke-linejoin: miter; stroke-miterlimit: 10; fill: rgb(255,255,255); fill-rule: nonzero; opacity: 1;" transform=" matrix(1 0 0 1 0 0) " stroke-linecap="round" />
	<path d="M 33.573 84.044 c -0.532 0 -0.975 -0.417 -0.998 -0.953 c -0.003 -0.077 -0.012 -0.28 -0.006 -4.778 c 0 -0.467 -0.192 -0.918 -0.542 -1.269 c -0.412 -0.412 -1.003 -0.648 -1.623 -0.648 h -4.759 c -0.552 0 -1 -0.447 -1 -1 s 0.448 -1 1 -1 h 4.759 c 1.146 0 2.253 0.45 3.038 1.235 c 0.729 0.729 1.128 1.683 1.127 2.684 c -0.006 3.982 0.001 4.606 0.004 4.69 c 0.021 0.551 -0.409 1.017 -0.959 1.038 C 33.6 84.044 33.586 84.044 33.573 84.044 z" style="stroke: white; stroke-width: 1; stroke-dasharray: none; stroke-linecap: butt; stroke-linejoin: miter; stroke-miterlimit: 10; fill: rgb(255,255,255); fill-rule: nonzero; opacity: 1;" transform=" matrix(1 0 0 1 0 0) " stroke-linecap="round" />
	<path d="M 56.387 84.047 c -0.016 0 -0.031 0 -0.047 -0.001 c -0.551 -0.025 -0.978 -0.492 -0.953 -1.043 l 0 0 c 0.007 -0.178 0.008 -1.755 0.004 -4.688 c -0.001 -1.001 0.399 -1.954 1.127 -2.684 c 0.784 -0.785 1.892 -1.235 3.038 -1.235 h 4.76 c 0.553 0 1 0.447 1 1 s -0.447 1 -1 1 h -4.76 c -0.619 0 -1.211 0.236 -1.622 0.648 c -0.351 0.352 -0.544 0.802 -0.543 1.269 c 0.006 3.976 0 4.647 -0.006 4.78 C 57.36 83.629 56.918 84.047 56.387 84.047 z" style="stroke: white; stroke-width: 1; stroke-dasharray: none; stroke-linecap: butt; stroke-linejoin: miter; stroke-miterlimit: 10; fill: rgb(255,255,255); fill-rule: nonzero; opacity: 1;" transform=" matrix(1 0 0 1 0 0) " stroke-linecap="round" />
	<path d="M 55.979 44.262 c -0.175 0 -0.353 -0.046 -0.514 -0.143 c -0.474 -0.284 -0.627 -0.898 -0.343 -1.372 c 1.571 -2.62 2.047 -4.893 1.415 -6.758 c -0.709 -2.091 -2.859 -3.86 -6.393 -5.259 c -0.463 -0.183 -0.72 -0.678 -0.604 -1.162 c 0.129 -0.539 0.474 -1.031 1.073 -1.511 c -4.985 -1.257 -10.568 -0.56 -13.281 3.822 c -0.123 0.198 -0.31 0.347 -0.531 0.421 c -1.579 0.532 -2.692 1.55 -3.221 2.944 c -0.759 2.002 -0.283 4.665 1.342 7.499 c 0.274 0.479 0.109 1.09 -0.37 1.365 c -0.481 0.274 -1.09 0.109 -1.365 -0.37 c -1.928 -3.363 -2.453 -6.631 -1.477 -9.203 c 0.698 -1.84 2.151 -3.252 4.113 -4.008 c 3.777 -5.69 11.515 -5.97 17.598 -3.684 c 0.378 0.142 0.634 0.497 0.647 0.9 c 0.015 0.403 -0.215 0.776 -0.582 0.944 c -0.614 0.283 -1.042 0.526 -1.339 0.725 c 3.363 1.556 5.475 3.548 6.283 5.934 c 0.83 2.447 0.294 5.283 -1.594 8.429 C 56.649 44.089 56.318 44.262 55.979 44.262 z" style="stroke: white; stroke-width: 1; stroke-dasharray: none; stroke-linecap: butt; stroke-linejoin: miter; stroke-miterlimit: 10; fill: rgb(255,255,255); fill-rule: nonzero; opacity: 1;" transform=" matrix(1 0 0 1 0 0) " stroke-linecap="round" />
	<path d="M 55.431 44.235 c -0.008 0 -0.016 0 -0.024 0 c -0.552 -0.013 -0.988 -0.472 -0.976 -1.024 c 0.029 -1.2 -0.095 -1.694 -0.171 -1.882 c -2.404 0.367 -5.258 0.543 -8.564 -0.722 c -2.532 -1.059 -6.089 -2.321 -8.059 -1.175 c -1.047 0.609 -1.676 1.893 -1.922 3.923 c -0.066 0.549 -0.571 0.94 -1.113 0.873 c -0.548 -0.066 -0.939 -0.565 -0.873 -1.113 c 0.322 -2.658 1.298 -4.479 2.902 -5.412 c 2.708 -1.577 6.666 -0.269 9.808 1.048 c 2.893 1.105 5.366 0.938 7.606 0.588 c 0.531 -0.099 1.065 0.034 1.473 0.381 c 0.687 0.584 0.959 1.643 0.913 3.54 C 56.417 43.803 55.972 44.235 55.431 44.235 z" style="stroke: white; stroke-width: 1; stroke-dasharray: none; stroke-linecap: butt; stroke-linejoin: miter; stroke-miterlimit: 10; fill: rgb(255,255,255); fill-rule: nonzero; opacity: 1;" transform=" matrix(1 0 0 1 0 0) " stroke-linecap="round" />
	<path d="M 45 62.613 c -0.721 0 -1.433 -0.125 -2.115 -0.371 c -4.169 -1.506 -7.333 -4.964 -8.461 -9.249 c -0.141 -0.534 0.179 -1.081 0.713 -1.222 c 0.534 -0.143 1.081 0.179 1.221 0.712 c 0.961 3.65 3.655 6.595 7.206 7.878 c 0.927 0.333 1.943 0.335 2.872 0 c 3.55 -1.283 6.244 -4.228 7.205 -7.878 c 0.142 -0.534 0.688 -0.85 1.222 -0.712 c 0.534 0.141 0.853 0.688 0.712 1.222 c -1.128 4.285 -4.291 7.743 -8.46 9.249 C 46.433 62.488 45.721 62.613 45 62.613 z" style="stroke: white; stroke-width: 1; stroke-dasharray: none; stroke-linecap: butt; stroke-linejoin: miter; stroke-miterlimit: 10; fill: rgb(255,255,255); fill-rule: nonzero; opacity: 1;" transform=" matrix(1 0 0 1 0 0) " stroke-linecap="round" />
	<path d="M 45.011 57.6 c -1.035 0 -2.057 -0.232 -3.057 -0.697 c -0.501 -0.233 -0.718 -0.828 -0.485 -1.329 c 0.232 -0.501 0.827 -0.719 1.328 -0.485 c 1.472 0.686 2.953 0.682 4.532 -0.009 c 0.508 -0.225 1.097 0.011 1.316 0.516 c 0.222 0.506 -0.01 1.096 -0.516 1.316 C 47.081 57.37 46.039 57.6 45.011 57.6 z" style="stroke: white; stroke-width: 1; stroke-dasharray: none; stroke-linecap: butt; stroke-linejoin: miter; stroke-miterlimit: 10; fill: rgb(255,255,255); fill-rule: nonzero; opacity: 1;" transform=" matrix(1 0 0 1 0 0) " stroke-linecap="round" />
	<path d="M 55.935 53.738 H 34.065 c -1.485 0 -2.694 -1.209 -2.694 -2.694 v -6.115 c 0 -1.485 1.208 -2.694 2.694 -2.694 h 21.869 c 1.485 0 2.694 1.208 2.694 2.694 v 6.115 C 58.629 52.529 57.42 53.738 55.935 53.738 z M 34.065 44.235 c -0.383 0 -0.694 0.311 -0.694 0.694 v 6.115 c 0 0.383 0.311 0.694 0.694 0.694 h 21.869 c 0.383 0 0.694 -0.312 0.694 -0.694 v -6.115 c 0 -0.383 -0.312 -0.694 -0.694 -0.694 H 34.065 z" style="stroke: white; stroke-width: 1; stroke-dasharray: none; stroke-linecap: butt; stroke-linejoin: miter; stroke-miterlimit: 10; fill: rgb(255,255,255); fill-rule: nonzero; opacity: 1;" transform=" matrix(1 0 0 1 0 0) " stroke-linecap="round" />
	<path d="M 53.319 48.35 c -0.27 0 -0.52 -0.1 -0.71 -0.29 c -0.189 -0.189 -0.29 -0.439 -0.29 -0.71 c 0 -0.13 0.021 -0.25 0.07 -0.38 c 0.05 -0.12 0.13 -0.229 0.22 -0.32 c 0.37 -0.38 1.04 -0.38 1.41 0 c 0.101 0.091 0.17 0.2 0.221 0.32 c 0.05 0.13 0.079 0.25 0.079 0.38 c 0 0.271 -0.109 0.521 -0.3 0.71 C 53.84 48.25 53.59 48.35 53.319 48.35 z" style="stroke: white; stroke-width: 1; stroke-dasharray: none; stroke-linecap: butt; stroke-linejoin: miter; stroke-miterlimit: 10; fill: rgb(255,255,255); fill-rule: nonzero; opacity: 1;" transform=" matrix(1 0 0 1 0 0) " stroke-linecap="round" />
	<path d="M 48.819 48.354 H 36.683 c -0.552 0 -1 -0.447 -1 -1 s 0.448 -1 1 -1 h 12.137 c 0.553 0 1 0.447 1 1 S 49.372 48.354 48.819 48.354 z" style="stroke: white; stroke-width: 1; stroke-dasharray: none; stroke-linecap: butt; stroke-linejoin: miter; stroke-miterlimit: 10; fill: rgb(255,255,255); fill-rule: nonzero; opacity: 1;" transform=" matrix(1 0 0 1 0 0) " stroke-linecap="round" />
	<path d="M 37.958 16.103 c -0.532 0 -0.975 -0.42 -0.998 -0.957 c -0.024 -0.552 0.404 -1.018 0.956 -1.042 c 4.388 -0.189 8.974 -0.2 13.369 -0.033 c 0.552 0.021 0.982 0.486 0.961 1.038 s -0.486 0.978 -1.037 0.961 c -4.341 -0.166 -8.872 -0.154 -13.207 0.032 C 37.987 16.103 37.973 16.103 37.958 16.103 z" 
  style="stroke: white; stroke-width: 1; stroke-dasharray: none; stroke-linecap: butt; stroke-linejoin: miter; stroke-miterlimit: 10; fill: rgb(255,255,255); fill-rule: nonzero; opacity: 1;" transform=" matrix(1 0 0 1 0 0) " stroke-linecap="round" />
	<path d="M 22.071 29.788 c -0.233 0 -0.462 -0.082 -0.644 -0.234 c -0.226 -0.19 -0.356 -0.47 -0.356 -0.766 v -5.872 c 0 -0.486 0.35 -0.902 0.828 -0.985 c 2.198 -0.383 4.538 -0.716 6.956 -0.989 c 0.285 -0.035 0.566 0.059 0.778 0.248 c 0.212 0.189 0.334 0.461 0.334 0.746 v 5.872 c 0 0.509 -0.382 0.937 -0.888 0.994 c -2.372 0.268 -4.672 0.595 -6.837 0.973 C 22.186 29.783 22.128 29.788 22.071 29.788 z M 23.071 23.76 v 3.845 c 1.578 -0.256 3.218 -0.487 4.896 -0.688 v -3.857 C 26.282 23.265 24.642 23.5 23.071 23.76 z" style="stroke: white; stroke-width: 1; stroke-dasharray: none; stroke-linecap: butt; stroke-linejoin: miter; stroke-miterlimit: 10; fill: rgb(255,255,255); fill-rule: nonzero; opacity: 1;" transform=" matrix(1 0 0 1 0 0) " stroke-linecap="round" />
</g>
</g>
</svg>