<?xml version="1.0" encoding="utf-8"?>
<!-- Generator: Adobe Illustrator 27.0.0, SVG Export Plug-In . SVG Version: 6.00 Build 0)  -->
<svg version="1.1" id="Layer_1" xmlns="http://www.w3.org/2000/svg" xmlns:xlink="http://www.w3.org/1999/xlink" x="0px" y="0px"
	 viewBox="0 0 161 146.6" style="enable-background:new 0 0 161 146.6;" xml:space="preserve">
<style type="text/css">
	.st0{fill-rule:evenodd;clip-rule:evenodd;fill:#166DA5;}
	.st1{fill-rule:evenodd;clip-rule:evenodd;fill:#8FDB69;}
	.st2{opacity:0.95;fill-rule:evenodd;clip-rule:evenodd;fill:url(#SVGID_1_);enable-background:new    ;}
	
		.st3{opacity:0.95;fill-rule:evenodd;clip-rule:evenodd;fill:url(#SVGID_00000057833145509881955710000014419309457018165691_);enable-background:new    ;}
	.st4{fill-rule:evenodd;clip-rule:evenodd;fill:#010101;}
</style>
<g>
	<path class="st0" d="M160.6,71.9l-17.4,29.3l-24.4-29.7l24.4-28.9L160.6,71.9z"/>
	<path class="st1" d="M141.3,106.2l-26.5-31.7l-15.9,26.6l24.7,36.1L141.3,106.2z"/>
	<path class="st0" d="M141,37.4l-26.2,31.8L98.9,42.6l24.7-35.7L141,37.4z"/>
	
		<linearGradient id="SVGID_1_" gradientUnits="userSpaceOnUse" x1="-870.0214" y1="604.9363" x2="-869.0214" y2="604.9363" gradientTransform="matrix(97.9 0 0 -62.6 85236.2031 37907.0039)">
		<stop  offset="0" style="stop-color:#2A3B8F"/>
		<stop  offset="1" style="stop-color:#29ABE2"/>
	</linearGradient>
	<path class="st2" d="M61.1,37.4H141L123.4,6.7H78.7L61.1,37.4z M114.8,69.3H159l-15.9-26.8H98.8"/>
	
		<linearGradient id="SVGID_00000074440539065311861870000001087365988808848797_" gradientUnits="userSpaceOnUse" x1="-869.0306" y1="604.912" x2="-870.0306" y2="604.912" gradientTransform="matrix(98 0 0 -62.4 85324 37852.1055)">
		<stop  offset="0" style="stop-color:#B4D44E"/>
		<stop  offset="1" style="stop-color:#E7F716"/>
	</linearGradient>
	
		<path style="opacity:0.95;fill-rule:evenodd;clip-rule:evenodd;fill:url(#SVGID_00000074440539065311861870000001087365988808848797_);enable-background:new    ;" d="
		M141.3,106.3H61l17.6,30.5h45L141.3,106.3z M114.8,74.4H159l-15.9,26.8H98.8"/>
	<path class="st4" d="M78.6,136.8L41,71.8l38.1-65H37.9l-37.5,65l37.5,65H78.6z"/>
</g>
</svg>
