<?xml version="1.0" encoding="utf-8"?>
<!-- Generator: Adobe Illustrator 27.0.0, SVG Export Plug-In . SVG Version: 6.00 Build 0)  -->
<svg version="1.1"
	 id="svg56" xmlns:svg="http://www.w3.org/2000/svg" xmlns:sodipodi="http://sodipodi.sourceforge.net/DTD/sodipodi-0.dtd" xmlns:inkscape="http://www.inkscape.org/namespaces/inkscape" xmlns:rdf="http://www.w3.org/1999/02/22-rdf-syntax-ns#" xmlns:dc="http://purl.org/dc/elements/1.1/" xmlns:cc="http://creativecommons.org/ns#" inkscape:version="1.0.2-2 (e86c870879, 2021-01-15)" sodipodi:docname="Webpack.svg"
	 xmlns="http://www.w3.org/2000/svg" xmlns:xlink="http://www.w3.org/1999/xlink" x="0px" y="0px" viewBox="0 0 987.9 960.8"
	 style="enable-background:new 0 0 987.9 960.8;" xml:space="preserve">
<style type="text/css">
	.st0{fill:#FFFFFF;}
	.st1{fill:#8ED6FB;}
	.st2{fill:#1C78C0;}
</style>
<sodipodi:namedview  bordercolor="#666666" borderopacity="1" gridtolerance="10" guidetolerance="10" id="namedview58" inkscape:current-layer="svg56" inkscape:cx="2328.4012" inkscape:cy="431.22766" inkscape:pageopacity="0" inkscape:pageshadow="2" inkscape:window-height="745" inkscape:window-maximized="1" inkscape:window-width="1366" inkscape:window-x="-8" inkscape:window-y="-8" inkscape:zoom="0.18815252" objecttolerance="10" pagecolor="#ffffff" showgrid="false">
	</sodipodi:namedview>
<path id="path48" class="st0" d="M493.9-78.5l493.9,279.4v558.9l-493.9,279.4L0,759.8V200.9L493.9-78.5z"/>
<path id="path50" class="st1" d="M899.7,740.5L510.3,960.8V789.3l242.6-133.5L899.7,740.5z M926.3,716.4V255.8l-142.4,82.3v296.1
	L926.3,716.4z M86.7,740.5l389.4,220.3V789.3L233.3,655.8L86.7,740.5z M60,716.4V255.8l142.4,82.3v296.1L60,716.4z M76.7,225.9
	L476.1,0v165.8L220.2,306.6l-2,1.1L76.7,225.9z M909.6,225.9L510.3,0v165.8l255.9,140.6l2,1.1L909.6,225.9z"/>
<path id="path52" class="st2" d="M476.1,750.2L236.6,618.5V357.7L476,495.9v254.3H476.1z M510.3,750.2l239.4-131.6V357.7L510.3,496
	V750.2z M252.8,327.6l240.4-132.1l240.3,132.1L493.2,466.4L252.8,327.6z"/>
</svg>
